<svg width="254" height="40" viewBox="0 0 254 40" fill="none" xmlns="http://www.w3.org/2000/svg">
  <g transform="scale(2)">
    <path
      d="M41.919 9.995v-.033c0-3.274 2.452-5.956 5.944-5.956 2.123 0 3.412.744 4.511 1.794l-1.299 1.497c-.921-.857-1.913-1.433-3.228-1.433-2.188 0-3.805 1.81-3.805 4.066v.032c0 2.257 1.595 4.082 3.805 4.082 1.417 0 2.323-.56 3.309-1.48l1.299 1.313c-1.202 1.25-2.522 2.041-4.678 2.041-3.358 0-5.864-2.617-5.864-5.923h.006zM53.446 13.22v-.032c0-1.874 1.466-2.8 3.59-2.8.97 0 1.665.145 2.339.36v-.215c0-1.233-.76-1.89-2.156-1.89-.97 0-1.698.215-2.485.544l-.528-1.562c.954-.425 1.892-.705 3.277-.705 1.299 0 2.274.344 2.883.969.642.625.938 1.546.938 2.682v5.153h-1.946v-1.088c-.592.706-1.498 1.266-2.834 1.266-1.633 0-3.083-.937-3.083-2.682h.005zm5.961-.624v-.593a5.5 5.5 0 0 0-1.978-.344c-1.283 0-2.043.543-2.043 1.448v.032c0 .84.744 1.314 1.698 1.314 1.32 0 2.323-.759 2.323-1.857zM63.363 7.033h1.994v1.96c.545-1.298 1.547-2.186 3.083-2.122v2.106h-.113c-1.746 0-2.964 1.136-2.964 3.44v3.307h-1.994V7.033h-.006zM69.06 11.41v-.215c0-2.39 1.93-4.378 4.322-4.345 2.722.037 4.096 2.191 4.096 4.674 0 .183-.016.36-.032.56h-6.392c.216 1.416 1.218 2.208 2.506 2.208.97 0 1.666-.361 2.355-1.04l1.17 1.04c-.825.985-1.962 1.632-3.557 1.632-2.522 0-4.463-1.826-4.463-4.508l-.005-.005zm6.44-.64c-.129-1.282-.889-2.289-2.21-2.289-1.217 0-2.074.937-2.257 2.289H75.5zM79.386 4.2h2.156l3.508 5.45 3.51-5.45h2.155v11.524h-2.027v-8.11l-3.638 5.434h-.064L81.38 7.652v8.078h-1.994V4.2zM92.548 13.22v-.032c0-1.874 1.466-2.8 3.589-2.8.97 0 1.665.145 2.339.36v-.215c0-1.233-.76-1.89-2.156-1.89-.97 0-1.697.215-2.484.544l-.528-1.562c.953-.425 1.891-.705 3.276-.705 1.3 0 2.275.344 2.884.969.641.625.937 1.546.937 2.682v5.153H98.46v-1.088c-.593.706-1.498 1.266-2.835 1.266-1.633 0-3.083-.937-3.083-2.682h.006zm5.96-.624v-.593a5.5 5.5 0 0 0-1.978-.344c-1.282 0-2.042.543-2.042 1.448v.032c0 .84.744 1.314 1.698 1.314 1.32 0 2.322-.759 2.322-1.857zM102.464 3.71h1.994v7.179l3.606-3.85h2.419l-3.46 3.537 3.574 5.154h-2.339l-2.571-3.77-1.234 1.282v2.482h-1.995V3.71h.006zM110.829 11.41v-.215c0-2.39 1.929-4.378 4.322-4.345 2.722.037 4.096 2.191 4.096 4.674 0 .183-.016.36-.032.56h-6.392c.215 1.416 1.218 2.208 2.506 2.208.97 0 1.665-.361 2.355-1.04l1.17 1.04c-.825.985-1.962 1.632-3.558 1.632-2.522 0-4.462-1.826-4.462-4.508l-.005-.005zm6.44-.64c-.129-1.282-.889-2.289-2.21-2.289-1.218 0-2.075.937-2.258 2.289h4.468zM120.928 7.033h1.994v1.96c.545-1.298 1.547-2.186 3.083-2.122v2.106h-.113c-1.746 0-2.964 1.136-2.964 3.44v3.307h-1.994V7.033h-.006z"
      fill="#222" />
    <path
      d="M25.357 0C19.827 0 15.35 4.475 15.35 10c0 2.445.879 4.68 2.334 6.419a9.966 9.966 0 0 0 2.333-6.408V10c0-1.427.556-2.768 1.563-3.775a5.31 5.31 0 0 1 3.778-1.562 5.31 5.31 0 0 1 3.778 1.562A5.3 5.3 0 0 1 30.698 10a5.3 5.3 0 0 1-1.563 3.775 5.31 5.31 0 0 1-3.778 1.562 5.195 5.195 0 0 1-3.643-1.438c-.102.301-.21.603-.334.9a12.208 12.208 0 0 1-2 3.22A9.966 9.966 0 0 0 25.357 20c5.53 0 10.008-4.475 10.008-10S30.887 0 25.357 0z"
      fill="#00A5B8" />
    <path
      d="M15.35 9.99V10a5.301 5.301 0 0 1-1.564 3.775 5.31 5.31 0 0 1-3.778 1.562 5.31 5.31 0 0 1-3.778-1.562A5.3 5.3 0 0 1 4.667 10 5.3 5.3 0 0 1 6.23 6.225a5.31 5.31 0 0 1 3.778-1.562c1.428 0 2.652.512 3.644 1.438.102-.301.21-.603.334-.9a12.21 12.21 0 0 1 2-3.22A9.967 9.967 0 0 0 10.007 0C4.478 0 0 4.475 0 10s4.479 10 10.008 10c5.53 0 10.008-4.475 10.008-10 0-2.445-.878-4.68-2.333-6.419a9.965 9.965 0 0 0-2.334 6.408z"
      fill="#285BA8" />
  </g>
</svg>
